<svg width="324" height="102" viewBox="0 0 324 102" fill="none" xmlns="http://www.w3.org/2000/svg">
<path d="M7.02 29.136H16.848L31.392 59.268H30.744L45.288 29.136H54.792V75H47.88V36.66H48.996L33.3 69.564H28.8L13.176 36.84H13.86V75H7.02V29.136ZM63.5687 75L79.2647 29.136H87.7247L102.953 75H95.7527L92.1887 64.056H74.4767L70.7687 75H63.5687ZM76.2047 58.8H90.4967L83.3687 37.38L76.2047 58.8ZM111.715 75V29.136H128.131C133.483 29.136 137.551 30.408 140.335 32.952C143.143 35.472 144.547 38.796 144.547 42.924C144.547 47.004 143.143 50.304 140.335 52.824C137.551 55.344 133.483 56.604 128.131 56.604H118.555V75H111.715ZM137.023 75L124.315 53.904H131.695L145.915 75H137.023ZM118.555 51.924H127.519C130.783 51.924 133.267 51.144 134.971 49.584C136.675 48 137.527 45.96 137.527 43.464C137.527 40.896 136.723 38.856 135.115 37.344C133.531 35.808 131.203 35.04 128.131 35.04H118.555V51.924ZM156.786 75V29.136H185.118V35.04H163.626V48.936H183.498V54.804H163.626V75H156.786Z" fill="black"/>
<path d="M222.294 50L224.91 42.356H226.32L228.858 50H227.658L227.064 48.176H224.112L223.494 50H222.294ZM224.4 47.3H226.782L225.594 43.73L224.4 47.3ZM230.288 50V42.356H232.85C233.702 42.356 234.358 42.568 234.818 42.992C235.278 43.416 235.508 44.002 235.508 44.75C235.508 45.49 235.278 46.072 234.818 46.496C234.358 46.916 233.702 47.126 232.85 47.126H231.44V50H230.288ZM231.44 46.13H232.85C233.338 46.13 233.708 46.004 233.96 45.752C234.212 45.5 234.338 45.166 234.338 44.75C234.338 44.33 234.212 43.99 233.96 43.73C233.708 43.47 233.338 43.34 232.85 43.34H231.44V46.13ZM237.074 50V42.356H239.636C240.488 42.356 241.144 42.568 241.604 42.992C242.064 43.416 242.294 44.002 242.294 44.75C242.294 45.49 242.064 46.072 241.604 46.496C241.144 46.916 240.488 47.126 239.636 47.126H238.226V50H237.074ZM238.226 46.13H239.636C240.124 46.13 240.494 46.004 240.746 45.752C240.998 45.5 241.124 45.166 241.124 44.75C241.124 44.33 240.998 43.99 240.746 43.73C240.494 43.47 240.124 43.34 239.636 43.34H238.226V46.13ZM243.877 50V42.356H248.677V43.34H245.017V45.668H248.461V46.652H245.017V49.004H248.677V50H243.877ZM249.88 50L252.496 42.356H253.906L256.444 50H255.244L254.65 48.176H251.698L251.08 50H249.88ZM251.986 47.3H254.368L253.18 43.73L251.986 47.3ZM259.044 42.356V49.004H262.338V50H257.904V42.356H259.044ZM266.191 50.156C265.671 50.156 265.193 50.064 264.757 49.88C264.321 49.692 263.969 49.414 263.701 49.046C263.437 48.678 263.299 48.218 263.287 47.666H264.403C264.403 47.998 264.483 48.27 264.643 48.482C264.807 48.694 265.023 48.852 265.291 48.956C265.559 49.056 265.855 49.106 266.179 49.106C266.507 49.106 266.797 49.056 267.049 48.956C267.301 48.856 267.495 48.722 267.631 48.554C267.771 48.386 267.841 48.194 267.841 47.978C267.841 47.686 267.751 47.452 267.571 47.276C267.391 47.096 267.117 46.944 266.749 46.82L265.327 46.292C264.715 46.064 264.249 45.802 263.929 45.506C263.609 45.206 263.449 44.79 263.449 44.258C263.449 43.654 263.685 43.164 264.157 42.788C264.629 42.408 265.293 42.218 266.149 42.218C266.961 42.218 267.591 42.406 268.039 42.782C268.491 43.158 268.749 43.67 268.813 44.318H267.691C267.635 43.99 267.481 43.73 267.229 43.538C266.981 43.346 266.621 43.25 266.149 43.25C265.693 43.25 265.337 43.35 265.081 43.55C264.825 43.746 264.697 43.994 264.697 44.294C264.697 44.542 264.777 44.74 264.937 44.888C265.101 45.036 265.355 45.17 265.699 45.29L267.319 45.884C267.875 46.08 268.309 46.344 268.621 46.676C268.933 47.008 269.089 47.43 269.089 47.942C269.089 48.374 268.977 48.756 268.753 49.088C268.529 49.42 268.201 49.682 267.769 49.874C267.337 50.062 266.811 50.156 266.191 50.156Z" fill="black"/>
<path d="M223.17 29.356H224.808L227.232 34.378H227.124L229.548 29.356H231.132V37H229.98V30.61H230.166L227.55 36.094H226.8L224.196 30.64H224.31V37H223.17V29.356ZM236.267 37.156C235.615 37.156 235.035 37.008 234.527 36.712C234.019 36.416 233.619 35.974 233.327 35.386C233.039 34.798 232.895 34.064 232.895 33.184C232.895 32.288 233.039 31.548 233.327 30.964C233.619 30.376 234.019 29.938 234.527 29.65C235.035 29.362 235.615 29.218 236.267 29.218C236.923 29.218 237.505 29.364 238.013 29.656C238.525 29.948 238.925 30.39 239.213 30.982C239.505 31.57 239.651 32.304 239.651 33.184C239.651 34.072 239.505 34.812 239.213 35.404C238.925 35.992 238.525 36.432 238.013 36.724C237.505 37.012 236.923 37.156 236.267 37.156ZM236.267 36.112C236.947 36.112 237.483 35.862 237.875 35.362C238.271 34.862 238.469 34.132 238.469 33.172C238.469 32.236 238.271 31.514 237.875 31.006C237.483 30.494 236.947 30.238 236.267 30.238C235.599 30.238 235.067 30.494 234.671 31.006C234.275 31.518 234.077 32.244 234.077 33.184C234.077 34.136 234.275 34.862 234.671 35.362C235.067 35.862 235.599 36.112 236.267 36.112ZM241.386 29.356H242.688L246.39 35.284H246.3V29.356H247.44V37H246.228L242.346 30.808H242.526V37H241.386V29.356ZM249.783 37V29.356H250.923V37H249.783ZM252.166 30.34V29.356H258.19V30.34H255.49L255.748 30.076V37H254.608V30.076L254.86 30.34H252.166ZM262.224 37.156C261.572 37.156 260.992 37.008 260.484 36.712C259.976 36.416 259.576 35.974 259.284 35.386C258.996 34.798 258.852 34.064 258.852 33.184C258.852 32.288 258.996 31.548 259.284 30.964C259.576 30.376 259.976 29.938 260.484 29.65C260.992 29.362 261.572 29.218 262.224 29.218C262.88 29.218 263.462 29.364 263.97 29.656C264.482 29.948 264.882 30.39 265.17 30.982C265.462 31.57 265.608 32.304 265.608 33.184C265.608 34.072 265.462 34.812 265.17 35.404C264.882 35.992 264.482 36.432 263.97 36.724C263.462 37.012 262.88 37.156 262.224 37.156ZM262.224 36.112C262.904 36.112 263.44 35.862 263.832 35.362C264.228 34.862 264.426 34.132 264.426 33.172C264.426 32.236 264.228 31.514 263.832 31.006C263.44 30.494 262.904 30.238 262.224 30.238C261.556 30.238 261.024 30.494 260.628 31.006C260.232 31.518 260.034 32.244 260.034 33.184C260.034 34.136 260.232 34.862 260.628 35.362C261.024 35.862 261.556 36.112 262.224 36.112ZM267.361 37V29.356H270.097C270.989 29.356 271.667 29.568 272.131 29.992C272.599 30.412 272.833 30.966 272.833 31.654C272.833 32.334 272.599 32.884 272.131 33.304C271.667 33.724 270.989 33.934 270.097 33.934H268.501V37H267.361ZM271.579 37L269.461 33.484H270.691L273.061 37H271.579ZM268.501 33.154H269.995C270.539 33.154 270.953 33.024 271.237 32.764C271.521 32.5 271.663 32.16 271.663 31.744C271.663 31.316 271.529 30.976 271.261 30.724C270.997 30.468 270.609 30.34 270.097 30.34H268.501V33.154ZM274.873 37V29.356H276.013V37H274.873ZM278.336 29.356H279.638L283.34 35.284H283.25V29.356H284.39V37H283.178L279.296 30.808H279.476V37H278.336V29.356ZM289.469 37.156C288.853 37.156 288.295 36.996 287.795 36.676C287.295 36.352 286.897 35.898 286.601 35.314C286.305 34.726 286.157 34.036 286.157 33.244C286.157 32.6 286.249 32.028 286.433 31.528C286.621 31.028 286.879 30.606 287.207 30.262C287.539 29.918 287.923 29.658 288.359 29.482C288.795 29.306 289.261 29.218 289.757 29.218C290.405 29.218 290.961 29.354 291.425 29.626C291.889 29.898 292.271 30.33 292.571 30.922L291.443 31.246C291.203 30.914 290.939 30.666 290.651 30.502C290.363 30.334 290.047 30.25 289.703 30.25C289.283 30.25 288.895 30.372 288.539 30.616C288.187 30.856 287.905 31.2 287.693 31.648C287.481 32.092 287.375 32.624 287.375 33.244C287.375 33.808 287.463 34.306 287.639 34.738C287.819 35.166 288.071 35.502 288.395 35.746C288.723 35.986 289.109 36.106 289.553 36.106C289.905 36.106 290.221 36.026 290.501 35.866C290.781 35.706 291.001 35.47 291.161 35.158C291.325 34.842 291.407 34.452 291.407 33.988H291.707C291.707 34.632 291.629 35.192 291.473 35.668C291.321 36.14 291.081 36.506 290.753 36.766C290.425 37.026 289.997 37.156 289.469 37.156ZM291.587 37L291.407 35.248V33.952L289.571 33.904V33.154H292.511V37H291.587Z" fill="black"/>
<path d="M223.17 77V69.356H227.892V70.34H224.31V72.656H227.622V73.634H224.31V77H223.17ZM227.966 77L230.582 69.356H231.992L234.53 77H233.33L232.736 75.176H229.784L229.166 77H227.966ZM230.072 74.3H232.454L231.266 70.73L230.072 74.3ZM235.99 77V69.356H238.726C239.618 69.356 240.296 69.568 240.76 69.992C241.228 70.412 241.462 70.966 241.462 71.654C241.462 72.334 241.228 72.884 240.76 73.304C240.296 73.724 239.618 73.934 238.726 73.934H237.13V77H235.99ZM240.208 77L238.09 73.484H239.32L241.69 77H240.208ZM237.13 73.154H238.624C239.168 73.154 239.582 73.024 239.866 72.764C240.15 72.5 240.292 72.16 240.292 71.744C240.292 71.316 240.158 70.976 239.89 70.724C239.626 70.468 239.238 70.34 238.726 70.34H237.13V73.154ZM243.502 69.356H245.14L247.564 74.378H247.456L249.88 69.356H251.464V77H250.312V70.61H250.498L247.882 76.094H247.132L244.528 70.64H244.642V77H243.502V69.356Z" fill="black"/>
<path d="M223.17 64V56.356H225.906C226.798 56.356 227.476 56.568 227.94 56.992C228.408 57.412 228.642 57.966 228.642 58.654C228.642 59.334 228.408 59.884 227.94 60.304C227.476 60.724 226.798 60.934 225.906 60.934H224.31V64H223.17ZM227.388 64L225.27 60.484H226.5L228.87 64H227.388ZM224.31 60.154H225.804C226.348 60.154 226.762 60.024 227.046 59.764C227.33 59.5 227.472 59.16 227.472 58.744C227.472 58.316 227.338 57.976 227.07 57.724C226.806 57.468 226.418 57.34 225.906 57.34H224.31V60.154ZM230.67 64V56.356H235.47V57.34H231.81V59.668H235.254V60.652H231.81V63.004H235.47V64H230.67ZM240.285 64.156C239.669 64.156 239.111 63.996 238.611 63.676C238.111 63.352 237.713 62.898 237.417 62.314C237.121 61.726 236.973 61.036 236.973 60.244C236.973 59.6 237.065 59.028 237.249 58.528C237.437 58.028 237.695 57.606 238.023 57.262C238.355 56.918 238.739 56.658 239.175 56.482C239.611 56.306 240.077 56.218 240.573 56.218C241.221 56.218 241.777 56.354 242.241 56.626C242.705 56.898 243.087 57.33 243.387 57.922L242.259 58.246C242.019 57.914 241.755 57.666 241.467 57.502C241.179 57.334 240.863 57.25 240.519 57.25C240.099 57.25 239.711 57.372 239.355 57.616C239.003 57.856 238.721 58.2 238.509 58.648C238.297 59.092 238.191 59.624 238.191 60.244C238.191 60.808 238.279 61.306 238.455 61.738C238.635 62.166 238.887 62.502 239.211 62.746C239.539 62.986 239.925 63.106 240.369 63.106C240.721 63.106 241.037 63.026 241.317 62.866C241.597 62.706 241.817 62.47 241.977 62.158C242.141 61.842 242.223 61.452 242.223 60.988H242.523C242.523 61.632 242.445 62.192 242.289 62.668C242.137 63.14 241.897 63.506 241.569 63.766C241.241 64.026 240.813 64.156 240.285 64.156ZM242.403 64L242.223 62.248V60.952L240.387 60.904V60.154H243.327V64H242.403ZM245.447 64V56.356H246.587V64H245.447ZM251.472 64.156C250.952 64.156 250.474 64.064 250.038 63.88C249.602 63.692 249.25 63.414 248.982 63.046C248.718 62.678 248.58 62.218 248.568 61.666H249.684C249.684 61.998 249.764 62.27 249.924 62.482C250.088 62.694 250.304 62.852 250.572 62.956C250.84 63.056 251.136 63.106 251.46 63.106C251.788 63.106 252.078 63.056 252.33 62.956C252.582 62.856 252.776 62.722 252.912 62.554C253.052 62.386 253.122 62.194 253.122 61.978C253.122 61.686 253.032 61.452 252.852 61.276C252.672 61.096 252.398 60.944 252.03 60.82L250.608 60.292C249.996 60.064 249.53 59.802 249.21 59.506C248.89 59.206 248.73 58.79 248.73 58.258C248.73 57.654 248.966 57.164 249.438 56.788C249.91 56.408 250.574 56.218 251.43 56.218C252.242 56.218 252.872 56.406 253.32 56.782C253.772 57.158 254.03 57.67 254.094 58.318H252.972C252.916 57.99 252.762 57.73 252.51 57.538C252.262 57.346 251.902 57.25 251.43 57.25C250.974 57.25 250.618 57.35 250.362 57.55C250.106 57.746 249.978 57.994 249.978 58.294C249.978 58.542 250.058 58.74 250.218 58.888C250.382 59.036 250.636 59.17 250.98 59.29L252.6 59.884C253.156 60.08 253.59 60.344 253.902 60.676C254.214 61.008 254.37 61.43 254.37 61.942C254.37 62.374 254.258 62.756 254.034 63.088C253.81 63.42 253.482 63.682 253.05 63.874C252.618 64.062 252.092 64.156 251.472 64.156ZM255.248 57.34V56.356H261.272V57.34H258.572L258.83 57.076V64H257.69V57.076L257.942 57.34H255.248ZM262.51 64V56.356H265.246C266.138 56.356 266.816 56.568 267.28 56.992C267.748 57.412 267.982 57.966 267.982 58.654C267.982 59.334 267.748 59.884 267.28 60.304C266.816 60.724 266.138 60.934 265.246 60.934H263.65V64H262.51ZM266.728 64L264.61 60.484H265.84L268.21 64H266.728ZM263.65 60.154H265.144C265.688 60.154 266.102 60.024 266.386 59.764C266.67 59.5 266.812 59.16 266.812 58.744C266.812 58.316 266.678 57.976 266.41 57.724C266.146 57.468 265.758 57.34 265.246 57.34H263.65V60.154ZM269.146 64L271.762 56.356H273.172L275.71 64H274.51L273.916 62.176H270.964L270.346 64H269.146ZM271.252 61.3H273.634L272.446 57.73L271.252 61.3ZM277.17 64V56.356H278.31V64H277.17ZM283.446 64.156C282.794 64.156 282.214 64.008 281.706 63.712C281.198 63.416 280.798 62.974 280.506 62.386C280.218 61.798 280.074 61.064 280.074 60.184C280.074 59.288 280.218 58.548 280.506 57.964C280.798 57.376 281.198 56.938 281.706 56.65C282.214 56.362 282.794 56.218 283.446 56.218C284.102 56.218 284.684 56.364 285.192 56.656C285.704 56.948 286.104 57.39 286.392 57.982C286.684 58.57 286.83 59.304 286.83 60.184C286.83 61.072 286.684 61.812 286.392 62.404C286.104 62.992 285.704 63.432 285.192 63.724C284.684 64.012 284.102 64.156 283.446 64.156ZM283.446 63.112C284.126 63.112 284.662 62.862 285.054 62.362C285.45 61.862 285.648 61.132 285.648 60.172C285.648 59.236 285.45 58.514 285.054 58.006C284.662 57.494 284.126 57.238 283.446 57.238C282.778 57.238 282.246 57.494 281.85 58.006C281.454 58.518 281.256 59.244 281.256 60.184C281.256 61.136 281.454 61.862 281.85 62.362C282.246 62.862 282.778 63.112 283.446 63.112ZM288.566 56.356H289.868L293.57 62.284H293.48V56.356H294.62V64H293.408L289.526 57.808H289.706V64H288.566V56.356Z" fill="black"/>
<rect x="204" y="28" width="2" height="53" fill="black"/>
</svg>
